<svg id="Layer_1" data-name="Layer 1" xmlns="http://www.w3.org/2000/svg" viewBox="0 0 508.76 121.78"><defs><style>.cls-1{fill:#ff5000;}.cls-2{fill:#26cad3;}.cls-3{fill:#f9be00;}</style></defs><title>logo_naranja</title><path class="cls-1" d="M.24,93.61V10.48H13l43.3,57.8V10.48H71V93.61H58.28L15,35.82v57.8Z" transform="translate(-0.24 -0.58)"/><path class="cls-1" d="M138.49,93.61H124.3V90.08a24.1,24.1,0,0,1-14.86,5.36,27.78,27.78,0,0,1-21.56-9.68,28.69,28.69,0,0,1-7.49-19.85,29.12,29.12,0,0,1,29.05-29.42,24.08,24.08,0,0,1,14.86,5.36V38.31h14.19ZM98.05,55c-2.19,2.8-3.29,6.46-3.29,10.9,0,5.18,1.46,9.32,4.45,12.3a14.24,14.24,0,0,0,10.47,4.32,13.75,13.75,0,0,0,11.57-5.66,17.93,17.93,0,0,0,3.23-11c0-5.06-1.46-9.14-4.38-12.18a14,14,0,0,0-10.66-4.26A13.84,13.84,0,0,0,98.05,55Z" transform="translate(-0.24 -0.58)"/><path class="cls-1" d="M165.9,41.91a16.53,16.53,0,0,1,10.84-4,46.56,46.56,0,0,1,5.24.36V51c-2.19-.18-3.9-.24-5.12-.24q-6.22,0-8.59,3.47c-1.59,2.37-2.38,6.58-2.38,12.73V93.61H151.71V38.31H165.9Z" transform="translate(-0.24 -0.58)"/><path class="cls-1" d="M244.59,93.61H230.4V90.08a24.12,24.12,0,0,1-14.86,5.36A27.77,27.77,0,0,1,194,85.76a28.67,28.67,0,0,1-7.49-19.85,29.11,29.11,0,0,1,29.05-29.42,24.1,24.1,0,0,1,14.86,5.36V38.31h14.19ZM204.15,55c-2.19,2.8-3.29,6.46-3.29,10.9,0,5.18,1.46,9.32,4.44,12.3a14.25,14.25,0,0,0,10.48,4.32,13.75,13.75,0,0,0,11.57-5.66,17.94,17.94,0,0,0,3.23-11c0-5.06-1.46-9.14-4.39-12.18a14,14,0,0,0-10.66-4.26A13.83,13.83,0,0,0,204.15,55Z" transform="translate(-0.24 -0.58)"/><path class="cls-1" d="M272,41.24a20.12,20.12,0,0,1,12.85-4.75A23.5,23.5,0,0,1,302,43.86c4.32,4.57,6.09,10.54,6.09,20V93.61H293.92V64.81q0-9.32-2.74-12.42a9.33,9.33,0,0,0-7.37-3c-4.08,0-7.19,1.28-9.25,3.84C272.85,55.37,272,59.57,272,66V93.61H257.81V38.31H272Z" transform="translate(-0.24 -0.58)"/><path class="cls-1" d="M336,13.41a8.52,8.52,0,0,1,2.56,6.15A8.47,8.47,0,0,1,336,25.77a8.74,8.74,0,0,1-6.34,2.56,8.5,8.5,0,0,1-6.27-2.56,8.32,8.32,0,0,1-2.62-6.27,8.24,8.24,0,0,1,2.62-6.15,9.08,9.08,0,0,1,6.4-2.5A8.67,8.67,0,0,1,336,13.41Z" transform="translate(-0.24 -0.58)"/><path class="cls-1" d="M404.59,93.61H390.4V90.08a24.1,24.1,0,0,1-14.86,5.36A27.78,27.78,0,0,1,354,85.76a28.69,28.69,0,0,1-7.49-19.85,29.11,29.11,0,0,1,29.05-29.42,24.09,24.09,0,0,1,14.86,5.36V38.31h14.19ZM364.15,55c-2.19,2.8-3.29,6.46-3.29,10.9,0,5.18,1.46,9.32,4.45,12.3a14.25,14.25,0,0,0,10.48,4.32,13.73,13.73,0,0,0,11.57-5.66,17.92,17.92,0,0,0,3.23-11c0-5.06-1.46-9.14-4.38-12.18a14,14,0,0,0-10.66-4.26A13.83,13.83,0,0,0,364.15,55Z" transform="translate(-0.24 -0.58)"/><path class="cls-1" d="M322.49,38.31V95.89c-.06,2.15-1,11.94-13.9,12.77v13.7s26.91-.45,28.05-25.26h0V38.31Z" transform="translate(-0.24 -0.58)"/><path class="cls-1" d="M508.09,9.09a3.39,3.39,0,0,0-2.63-1.17,3.34,3.34,0,0,0-2.34.9A3.38,3.38,0,0,0,502,11.39a3.46,3.46,0,0,0,1,2.55,3.53,3.53,0,0,0,4.85.13A3.41,3.41,0,0,0,509,11.45,3.37,3.37,0,0,0,508.09,9.09Zm-.57,4.21a2.77,2.77,0,0,1-3.89.21,2.85,2.85,0,0,1-.92-2,2.76,2.76,0,0,1,.72-1.89,2.57,2.57,0,0,1,2-.91,2.64,2.64,0,0,1,1.88.71,2.76,2.76,0,0,1,.21,3.9Z" transform="translate(-0.24 -0.58)"/><path class="cls-1" d="M506.06,12.6a1,1,0,0,1-.49.1,1.17,1.17,0,0,1-.87-.37,1.22,1.22,0,0,1-.36-.9,1.25,1.25,0,0,1,.35-.9,1.17,1.17,0,0,1,.88-.37c.4,0,.61.12,1,.57l.6-.58a2.23,2.23,0,0,0-1.63-.81,2.08,2.08,0,0,0-2.1,2.08,2,2,0,0,0,.53,1.39,2,2,0,0,0,1.57.69,2.1,2.1,0,0,0,1.52-.68l.13-.13-.6-.58A3.17,3.17,0,0,1,506.06,12.6Z" transform="translate(-0.24 -0.58)"/><path class="cls-2" d="M471.77,44.79l-27.67-43A2.72,2.72,0,0,0,441.81.58H423.38A.93.93,0,0,0,422.61,2l28.84,44.79a.93.93,0,0,1,0,1L422.61,92.46a.93.93,0,0,0,.78,1.43h18.44a2.72,2.72,0,0,0,2.28-1.24l27.66-42.83A4.63,4.63,0,0,0,471.77,44.79Z" transform="translate(-0.24 -0.58)"/><path class="cls-3" d="M477.45,53.54a.93.93,0,0,0-1.55,0L468.3,65.3a6.94,6.94,0,0,0,0,7.54l12.94,20a2.31,2.31,0,0,0,1.94,1.06h19.1a.69.69,0,0,0,.58-1.06Z" transform="translate(-0.24 -0.58)"/><path class="cls-1" d="M475.9,40.92a.93.93,0,0,0,1.55,0L502.87,1.64a.69.69,0,0,0-.58-1.06h-19.1a2.31,2.31,0,0,0-1.94,1.06l-12.94,20a6.94,6.94,0,0,0,0,7.54Z" transform="translate(-0.24 -0.58)"/></svg>